<svg width="707" height="697" viewBox="0 0 707 697" fill="none" xmlns="http://www.w3.org/2000/svg">
<path opacity="0.0344828" d="M178.738 435.877C137.04 391.997 132.334 324.703 167.52 275.447V275.447C175.688 264.012 181.891 251.294 185.873 237.817V237.817C203.025 179.765 258.95 142.043 319.2 147.887V147.887C333.187 149.243 347.303 148.256 360.965 144.966V144.966C419.815 130.794 480.446 160.366 505.511 215.466V215.466C511.33 228.257 519.242 239.988 528.922 250.175V250.175C570.621 294.055 575.326 361.349 540.141 410.605V410.605C531.972 422.04 525.77 434.758 521.788 448.235V448.235C504.635 506.286 448.71 544.009 388.46 538.165V538.165C374.473 536.809 360.358 537.796 346.695 541.086V541.086C287.845 555.257 227.214 525.686 202.149 470.586V470.586C196.331 457.795 188.418 446.064 178.738 435.877V435.877Z" stroke="url(#paint0_linear_1058_81603)"/>
<path opacity="0.0689655" d="M176.327 425.559C137.467 380.122 136.304 313.504 173.555 266.738V266.738C182.203 255.882 188.979 243.658 193.603 230.571V230.571C213.522 174.198 270.634 139.882 329.76 148.76V148.76C343.486 150.821 357.459 150.577 371.105 148.038V148.038C429.885 137.102 488.16 169.405 510.034 225.048V225.048C515.112 237.966 522.31 249.945 531.332 260.493V260.493C570.193 305.93 571.355 372.549 534.104 419.314V419.314C525.456 430.171 518.68 442.394 514.056 455.481V455.481C494.137 511.854 437.025 546.17 377.899 537.292V537.292C364.173 535.231 350.2 535.475 336.554 538.014V538.014C277.774 548.95 219.499 516.648 197.625 461.004V461.004C192.547 448.087 185.349 436.107 176.327 425.559V425.559Z" stroke="url(#paint1_linear_1058_81603)"/>
<path opacity="0.103448" d="M174.512 415.246C138.536 368.427 140.832 302.668 179.987 258.473V258.473C189.076 248.214 196.39 236.509 201.627 223.842V223.842C224.185 169.276 282.282 138.385 340.133 150.197V150.197C353.563 152.939 367.356 153.421 380.945 151.622V151.622C439.479 143.875 495.28 178.743 513.976 234.749V234.749C518.317 247.751 524.796 259.937 533.148 270.806V270.806C569.124 317.624 566.828 383.384 527.673 427.578V427.578C518.584 437.838 511.27 449.543 506.033 462.21V462.21C483.475 516.775 425.378 547.666 367.527 535.855V535.855C354.097 533.113 340.304 532.631 326.715 534.43V534.43C268.181 542.177 212.38 507.308 193.684 451.302V451.302C189.343 438.301 182.864 426.114 174.512 415.246V415.246Z" stroke="url(#paint2_linear_1058_81603)"/>
<path opacity="0.137931" d="M173.283 404.971C140.228 356.947 145.891 292.224 186.783 250.67V250.67C196.276 241.023 204.092 229.86 209.91 217.64V217.64C234.973 165.002 293.856 137.544 350.289 152.18V152.18C363.39 155.578 376.966 156.766 390.457 155.695V155.695C448.575 151.081 501.795 188.346 517.336 244.536V244.536C520.944 257.581 526.704 269.932 534.377 281.081V281.081C567.432 329.104 561.769 393.827 520.878 435.381V435.381C511.385 445.028 503.568 456.192 497.75 468.411V468.411C472.687 521.049 413.804 548.507 357.371 533.871V533.871C344.27 530.473 330.694 529.285 317.203 530.357V530.357C259.085 534.971 205.865 497.706 190.324 441.515V441.515C186.716 428.471 180.957 416.12 173.283 404.971V404.971Z" stroke="url(#paint3_linear_1058_81603)"/>
<path opacity="0.172414" d="M172.631 394.767C142.525 345.714 151.451 282.197 193.913 243.343V243.343C203.77 234.322 212.053 223.721 218.42 211.974V211.974C245.849 161.374 305.319 137.347 360.199 154.692V154.692C372.939 158.718 386.262 160.591 399.619 160.232V160.232C457.154 158.686 507.697 198.174 520.116 254.374V254.374C522.999 267.421 528.039 279.896 535.028 291.283V291.283C565.135 340.337 556.208 403.853 513.747 442.708V442.708C503.889 451.728 495.606 462.33 489.239 474.077V474.077C461.81 524.677 402.34 548.704 347.46 531.359V531.359C334.72 527.332 321.397 525.46 308.04 525.819V525.819C250.505 527.365 199.962 487.876 187.543 431.676V431.676C184.66 418.629 179.62 406.155 172.631 394.767V394.767Z" stroke="url(#paint4_linear_1058_81603)"/>
<path opacity="0.206897" d="M172.546 384.668C145.404 334.76 157.484 272.612 201.346 236.506V236.506C211.529 228.123 220.241 218.101 227.125 206.851V206.851C256.775 158.391 316.637 137.779 369.837 157.711V157.711C382.187 162.338 395.223 164.872 408.408 165.209V165.209C465.201 166.657 512.982 208.192 522.32 264.231V264.231C524.488 277.241 528.812 289.797 535.113 301.383V301.383C562.255 351.291 550.175 413.439 506.313 449.546V449.546C496.131 457.928 487.418 467.95 480.535 479.2V479.2C450.884 527.661 391.022 548.273 337.822 528.34V528.34C325.472 523.713 312.436 521.179 299.251 520.843V520.843C242.458 519.395 194.677 477.859 185.339 421.82V421.82C183.171 408.811 178.848 396.254 172.546 384.668V384.668Z" stroke="url(#paint5_linear_1058_81603)"/>
<path opacity="0.241379" d="M173.015 374.703C148.843 324.114 163.959 263.488 209.052 230.169V230.169C219.52 222.434 228.624 213.006 235.989 202.274V202.274C267.714 156.046 327.775 138.824 379.177 161.216V161.216C391.11 166.414 403.827 169.585 416.803 170.597V170.597C472.701 174.958 517.646 218.361 523.955 274.072V274.072C525.419 287.006 529.032 299.604 534.643 311.348V311.348C558.816 361.937 543.7 422.563 498.607 455.882V455.882C488.139 463.617 479.035 473.044 471.67 483.776V483.776C439.945 530.005 379.883 547.227 328.482 524.835V524.835C316.549 519.636 303.832 516.466 290.856 515.454V515.454C234.958 511.093 190.013 467.69 183.704 411.978V411.978C182.24 399.045 178.627 386.447 173.015 374.703V374.703Z" stroke="url(#paint6_linear_1058_81603)"/>
<path opacity="0.275862" d="M174.025 364.902C152.819 313.805 170.844 254.847 216.998 224.344V224.344C227.713 217.263 237.171 208.443 244.982 198.248V198.248C278.63 154.334 338.702 140.466 388.196 165.185V165.185C399.686 170.923 412.053 174.704 424.787 176.372V176.372C479.642 183.555 521.689 228.645 525.028 283.867V283.867C525.803 296.687 528.712 309.287 533.635 321.15V321.15C554.842 372.247 536.816 431.205 490.662 461.708V461.708C479.948 468.789 470.49 477.609 462.678 487.804V487.804C429.03 531.717 368.958 545.586 319.464 520.867V520.867C307.975 515.129 295.608 511.348 282.873 509.68V509.68C228.018 502.497 185.972 457.407 182.632 402.185V402.185C181.857 389.365 178.948 376.765 174.025 364.902V364.902Z" stroke="url(#paint7_linear_1058_81603)"/>
<path opacity="0.310345" d="M175.557 355.295C157.303 303.859 178.105 246.704 225.151 219.036V219.036C236.073 212.613 245.846 204.412 254.068 194.772V194.772C289.486 153.245 349.384 142.684 396.869 169.592V169.592C407.892 175.839 419.881 180.203 432.341 182.503V182.503C486.012 192.412 525.109 239.005 525.547 293.582V293.582C525.649 306.252 527.865 318.816 532.102 330.757V330.757C550.356 382.193 529.554 439.348 482.508 467.016V467.016C471.586 473.439 461.813 481.64 453.591 491.28V491.28C418.174 532.807 358.275 543.368 310.79 516.46V516.46C299.767 510.213 287.778 505.85 275.318 503.549V503.549C221.647 493.64 182.551 447.047 182.112 392.47V392.47C182.01 379.8 179.795 367.236 175.557 355.295V355.295Z" stroke="url(#paint8_linear_1058_81603)"/>
<path opacity="0.344828" d="M177.596 345.908C162.27 294.301 185.712 239.077 233.481 214.252V214.252C244.57 208.489 254.62 200.915 263.217 191.844V191.844C300.247 152.768 359.793 145.457 405.177 174.414V174.414C415.713 181.136 427.297 186.053 439.451 188.962V188.962C491.807 201.493 527.912 249.406 525.526 303.188V303.188C524.973 315.673 526.506 328.163 530.064 340.144V340.144C545.389 391.751 521.948 446.975 474.179 471.8V471.8C463.09 477.564 453.039 485.137 444.443 494.208V494.208C407.413 533.284 347.866 540.595 302.483 511.639V511.639C291.947 504.916 280.363 500 268.209 497.09V497.09C215.853 484.559 179.748 436.646 182.133 382.864V382.864C182.687 370.379 181.154 357.889 177.596 345.908V345.908Z" stroke="url(#paint9_linear_1058_81603)"/>
<path opacity="0.37931" d="M180.122 336.768C167.692 285.154 193.628 231.977 241.954 209.994V209.994C253.172 204.891 263.461 197.951 272.395 189.461V189.461C310.88 152.89 369.9 148.763 413.1 179.622V179.622C423.129 186.786 434.283 192.226 446.103 195.719V195.719C497.017 210.762 530.102 259.811 524.977 312.654V312.654C523.787 324.921 524.653 337.301 527.538 349.283V349.283C539.967 400.898 514.032 454.074 465.706 476.057V476.057C454.488 481.161 444.199 488.1 435.265 496.59V496.59C396.78 533.162 337.76 537.289 294.559 506.429V506.429C284.531 499.265 273.376 493.825 261.557 490.333V490.333C210.642 475.289 177.558 426.24 182.683 373.398V373.398C183.873 361.131 183.007 348.751 180.122 336.768V336.768Z" stroke="url(#paint10_linear_1058_81603)"/>
<path opacity="0.413793" d="M183.114 327.902C173.54 276.439 201.821 225.418 250.538 206.267V206.267C261.847 201.821 272.336 195.519 281.571 187.62V187.62C321.351 153.597 379.677 152.579 420.621 185.193V185.193C430.126 192.764 440.828 198.697 452.286 202.745V202.745C501.642 220.185 531.686 270.187 523.913 321.953V321.953C522.109 333.97 522.322 346.204 524.545 358.152V358.152C534.12 409.614 505.839 460.635 457.122 479.786V479.786C445.812 484.232 435.324 490.534 426.089 498.433V498.433C386.308 532.456 327.982 533.474 287.038 500.86V500.86C277.533 493.289 266.831 487.357 255.373 483.308V483.308C206.018 465.869 175.973 415.866 183.746 364.1V364.1C185.551 352.083 185.337 339.849 183.114 327.902V327.902Z" stroke="url(#paint11_linear_1058_81603)"/>
<path opacity="0.448276" d="M186.553 319.33C179.782 268.174 210.255 219.407 259.202 203.067V203.067C270.565 199.274 281.215 193.611 290.714 186.312V186.312C331.63 154.87 389.101 156.877 427.724 191.096V191.096C436.691 199.04 446.92 205.432 457.991 210.009V210.009C505.678 229.723 532.675 280.497 522.353 331.056V331.056C519.956 342.793 519.535 354.848 521.107 366.724V366.724C527.878 417.879 497.405 466.647 448.458 482.986V482.986C437.095 486.78 426.445 492.442 416.946 499.741V499.741C376.03 531.183 318.559 529.176 279.935 494.957V494.957C270.969 487.013 260.74 480.621 249.669 476.044V476.044C201.982 456.33 174.985 405.556 185.307 354.997V354.997C187.704 343.26 188.125 331.205 186.553 319.33V319.33Z" stroke="url(#paint12_linear_1058_81603)"/>
<path opacity="0.482759" d="M190.413 311.075C186.388 260.377 218.896 213.951 267.913 200.393V200.393C279.292 197.246 290.067 192.222 299.792 185.528V185.528C341.685 156.693 398.146 161.633 434.395 197.304V197.304C442.81 205.585 452.549 212.404 463.208 217.479V217.479C509.127 239.342 533.079 290.708 520.311 339.937V339.937C517.347 351.365 516.311 363.208 517.246 374.978V374.978C521.271 425.676 488.763 472.102 439.746 485.659V485.659C428.366 488.807 417.592 493.831 407.867 500.525V500.525C365.974 529.36 309.513 524.42 273.264 488.749V488.749C264.848 480.467 255.11 473.649 244.45 468.573V468.573C198.532 446.71 174.58 395.344 187.347 346.116V346.116C190.311 334.687 191.348 322.844 190.413 311.075V311.075Z" stroke="url(#paint13_linear_1058_81603)"/>
<path opacity="0.517241" d="M194.674 303.158C193.328 253.063 227.71 209.055 276.643 198.242V198.242C288.003 195.732 298.864 191.344 308.779 185.259V185.259C351.489 159.045 406.793 166.817 440.623 203.788V203.788C448.477 212.371 457.708 219.583 467.935 225.127V225.127C511.992 249.008 532.913 300.788 517.811 348.572V348.572C514.305 359.665 512.674 371.265 512.987 382.894V382.894C514.333 432.99 479.951 476.997 431.018 487.81V487.81C419.658 490.32 408.797 494.708 398.882 500.794V500.794C356.171 527.007 300.868 519.235 267.038 482.264V482.264C259.184 473.682 249.953 466.47 239.725 460.926V460.926C195.668 437.044 174.748 385.264 189.85 337.481V337.481C193.356 326.388 194.986 314.787 194.674 303.158V303.158Z" stroke="url(#paint14_linear_1058_81603)"/>
<path opacity="0.551724" d="M199.307 295.597C200.565 246.244 236.66 204.722 285.357 196.608V196.608C296.663 194.724 307.574 190.967 317.642 185.491V185.491C361.012 161.905 415.019 172.402 446.395 210.518V210.518C453.679 219.367 462.388 226.938 472.165 232.919V232.919C514.276 258.686 532.188 310.705 514.867 356.936V356.936C510.846 367.668 508.644 378.997 508.352 390.454V390.454C507.093 439.807 470.999 481.329 422.301 489.443V489.443C410.996 491.327 400.085 495.084 390.017 500.56V500.56C346.647 524.147 292.64 513.649 261.264 475.533V475.533C253.98 466.684 245.27 459.113 235.494 453.132V453.132C193.383 427.366 175.471 375.346 192.792 329.115V329.115C196.813 318.383 199.015 307.055 199.307 295.597V295.597Z" stroke="url(#paint15_linear_1058_81603)"/>
<path opacity="0.586207" d="M204.291 288.412C208.072 239.934 245.714 200.955 294.03 195.484V195.484C305.247 194.214 316.173 191.081 326.358 186.214V186.214C370.231 165.25 422.809 178.359 451.705 217.467V217.467C458.414 226.545 466.59 234.441 475.897 240.828V240.828C515.989 268.342 530.925 320.431 511.505 365.009V365.009C506.997 375.358 504.247 386.386 503.369 397.64V397.64C499.588 446.118 461.946 485.097 413.63 490.568V490.568C402.413 491.839 391.488 494.972 381.302 499.838V499.838C337.429 520.802 284.851 507.693 255.955 468.586V468.586C249.246 459.507 241.07 451.611 231.763 445.224V445.224C191.671 417.71 176.735 365.622 196.155 321.043V321.043C200.663 310.694 203.413 299.666 204.291 288.412V288.412Z" stroke="url(#paint16_linear_1058_81603)"/>
<path opacity="0.62069" d="M209.595 281.615C215.812 234.14 254.836 197.75 302.629 194.86V194.86C313.724 194.189 324.63 191.671 334.896 187.41V187.41C379.119 169.057 430.146 184.657 456.546 224.602V224.602C462.674 233.875 470.307 242.061 479.13 248.821V248.821C517.137 277.943 529.14 329.934 507.746 372.769V372.769C502.779 382.713 499.507 393.416 498.064 404.437V404.437C491.847 451.913 452.823 488.303 405.03 491.193V491.193C393.935 491.864 383.029 494.382 372.763 498.642V498.642C328.54 516.996 277.513 501.395 251.114 461.45V461.45C244.985 452.177 237.352 443.992 228.529 437.231V437.231C190.523 408.11 178.52 356.119 199.913 313.284V313.284C204.88 303.34 208.152 292.636 209.595 281.615V281.615Z" stroke="url(#paint17_linear_1058_81603)"/>
<path opacity="0.655172" d="M215.196 275.221C223.754 228.868 263.993 195.103 311.128 194.724V194.724C322.07 194.636 332.921 192.723 343.233 189.063V189.063C387.655 173.298 437.016 191.264 460.911 231.894V231.894C466.459 241.327 473.541 249.767 481.867 256.868V256.868C517.731 287.456 526.852 339.187 503.613 380.196V380.196C498.218 389.716 494.45 400.07 492.463 410.831V410.831C483.905 457.184 443.665 490.949 396.531 491.327V491.327C385.588 491.415 374.738 493.329 364.425 496.988V496.988C320.003 512.753 270.642 494.788 246.747 454.157V454.157C241.2 444.725 234.117 436.284 225.791 429.183V429.183C189.928 398.596 180.806 346.865 204.045 305.855V305.855C209.44 296.335 213.209 285.981 215.196 275.221V275.221Z" stroke="url(#paint18_linear_1058_81603)"/>
<path opacity="0.689655" d="M221.063 269.232C231.862 224.115 273.151 193.001 319.497 195.057V195.057C330.256 195.534 341.02 194.212 351.344 191.146V191.146C395.816 177.94 443.406 198.14 464.799 239.305V239.305C469.765 248.862 476.292 257.522 484.109 264.93V264.93C517.783 296.841 524.083 348.155 499.13 387.265V387.265C493.337 396.344 489.1 406.326 486.593 416.8V416.8C475.794 461.918 434.505 493.031 388.158 490.976V490.976C377.399 490.499 366.636 491.82 356.311 494.886V494.886C311.839 508.093 264.249 487.892 242.856 446.727V446.727C237.89 437.171 231.364 428.51 223.546 421.102V421.102C189.873 389.191 183.572 337.877 208.526 298.768V298.768C214.318 289.689 218.556 279.706 221.063 269.232V269.232Z" stroke="url(#paint19_linear_1058_81603)"/>
<path opacity="0.724138" d="M227.172 263.679C240.106 219.902 282.279 191.456 327.714 195.863V195.863C338.262 196.886 348.906 196.141 359.208 193.66V193.66C403.588 182.974 449.309 205.274 468.21 246.824V246.824C472.598 256.47 478.565 265.316 485.865 272.998V272.998C517.31 306.088 520.858 356.834 494.325 393.978V393.978C488.165 402.601 483.487 412.192 480.485 422.355V422.355C467.55 466.131 425.377 494.578 379.943 490.171V490.171C369.395 489.148 358.751 489.893 348.448 492.374V492.374C304.069 503.06 258.347 480.76 239.446 439.21V439.21C235.058 429.564 229.091 420.718 221.792 413.036V413.036C190.347 379.946 186.798 329.2 213.332 292.055V292.055C219.491 283.432 224.169 273.842 227.172 263.679V263.679Z" stroke="url(#paint20_linear_1058_81603)"/>
<path opacity="0.758621" d="M233.491 258.559C248.451 216.221 291.345 190.448 335.75 197.115V197.115C346.059 198.663 356.554 198.48 366.802 196.573V196.573C410.948 188.36 454.714 212.62 471.143 254.41V254.41C474.957 264.112 480.363 273.109 487.138 281.031V281.031C516.324 315.156 517.198 365.189 489.22 400.312V400.312C482.725 408.465 477.637 417.646 474.164 427.474V427.474C459.204 469.812 416.311 495.585 371.905 488.918V488.918C361.596 487.37 351.101 487.553 340.853 489.46V489.46C296.707 497.673 252.941 473.413 236.512 431.623V431.623C232.698 421.921 227.292 412.924 220.517 405.002V405.002C191.331 370.877 190.458 320.844 218.435 285.721V285.721C224.93 277.568 230.018 268.387 233.491 258.559V258.559Z" stroke="url(#paint21_linear_1058_81603)"/>
<path opacity="0.793103" d="M239.995 253.879C256.866 213.069 300.317 189.966 343.584 198.8V198.8C353.628 200.85 363.944 201.211 374.107 199.866V199.866C417.885 194.072 459.618 220.15 473.601 262.036V262.036C476.847 271.76 481.693 280.874 487.94 289.003V289.003C514.846 324.019 513.129 373.2 483.845 406.253V406.253C477.047 413.926 471.577 422.68 467.661 432.154V432.154C450.79 472.963 407.339 496.067 364.072 487.233V487.233C354.028 485.182 343.712 484.822 333.549 486.167V486.167C289.771 491.961 248.038 465.883 234.055 423.996V423.996C230.809 414.272 225.963 405.158 219.716 397.029V397.029C192.81 362.014 194.527 312.833 223.811 279.78V279.78C230.609 272.106 236.079 263.353 239.995 253.879V253.879Z" stroke="url(#paint22_linear_1058_81603)"/>
<path opacity="0.827586" d="M246.654 249.644C265.317 210.446 309.166 189.999 351.191 200.898V200.898C360.947 203.428 371.057 204.313 381.104 203.515V203.515C424.382 200.079 464.015 227.83 475.588 269.673V269.673C478.275 279.388 482.563 288.585 488.278 296.887V296.887C512.893 332.65 508.676 380.848 478.225 411.792V411.792C471.156 418.976 465.335 427.289 461.002 436.389V436.389C442.339 475.588 398.49 496.035 356.465 485.136V485.136C346.709 482.605 336.599 481.721 326.552 482.518V482.518C283.273 485.955 243.641 458.204 232.068 416.36V416.36C229.381 406.646 225.092 397.448 219.378 389.146V389.146C194.763 353.384 198.98 305.186 229.431 274.241V274.241C236.5 267.057 242.321 258.744 246.654 249.644V249.644Z" stroke="url(#paint23_linear_1058_81603)"/>
<path opacity="0.862069" d="M253.439 245.858C273.774 208.344 317.864 190.531 358.551 203.39V203.39C367.996 206.376 377.873 207.764 387.776 207.498V207.498C430.431 206.351 467.903 235.627 477.11 277.293V277.293C479.247 286.966 482.984 296.214 488.165 304.657V304.657C510.486 341.024 503.868 388.114 472.388 416.92V416.92C465.08 423.607 458.939 431.467 454.218 440.176V440.176C433.883 477.69 389.793 495.503 349.106 482.644V482.644C339.661 479.658 329.784 478.27 319.881 478.536V478.536C277.226 479.683 239.754 450.407 230.547 408.741V408.741C228.41 399.068 224.673 389.82 219.492 381.378V381.378C197.171 345.01 203.789 297.92 235.269 269.114V269.114C242.577 262.427 248.718 254.567 253.439 245.858V245.858Z" stroke="url(#paint24_linear_1058_81603)"/>
<path opacity="0.896552" d="M260.321 242.521C282.203 206.757 326.381 191.546 365.642 206.256V206.256C374.756 209.671 384.377 211.541 394.107 211.789V211.789C436.02 212.858 471.282 243.511 478.173 284.867V284.867C479.773 294.468 482.964 303.734 487.614 312.285V312.285C507.645 349.117 498.73 394.981 466.36 421.627V421.627C458.845 427.813 452.416 435.21 447.336 443.512V443.512C425.454 479.275 381.276 494.487 342.015 479.777V479.777C332.901 476.362 323.28 474.492 313.55 474.244V474.244C271.637 473.175 236.375 442.522 229.484 401.166V401.166C227.884 391.565 224.693 382.299 220.043 373.748V373.748C200.012 336.916 208.927 291.052 241.297 264.405V264.405C248.812 258.22 255.241 250.823 260.321 242.521V242.521Z" stroke="url(#paint25_linear_1058_81603)"/>
<path opacity="0.931035" d="M267.273 239.633C290.575 205.678 334.691 193.028 372.446 209.475V209.475C381.211 213.294 390.551 215.622 400.083 216.366V216.366C441.14 219.569 474.153 251.449 478.787 292.37V292.37C479.863 301.869 482.516 311.123 486.638 319.749V319.749C504.393 356.907 493.29 401.438 460.169 425.911V425.911C452.48 431.593 445.793 438.517 440.383 446.4V446.4C417.081 480.355 372.965 493.005 335.21 476.558V476.558C326.445 472.74 317.104 470.411 307.573 469.667V469.667C266.515 466.465 233.502 434.584 228.869 393.664V393.664C227.793 384.164 225.139 374.91 221.018 366.284V366.284C203.263 329.126 214.365 284.595 247.487 260.122V260.122C255.176 254.441 261.863 247.516 267.273 239.633V239.633Z" stroke="url(#paint26_linear_1058_81603)"/>
<path opacity="0.965517" d="M274.267 237.193C298.862 205.095 342.771 194.958 378.948 213.026V213.026C387.346 217.221 396.386 219.984 405.694 221.203V221.203C445.79 226.454 476.523 259.412 478.964 299.776V299.776C479.531 309.146 481.657 318.357 485.256 327.027V327.027C500.756 364.376 487.581 407.471 453.845 429.767V429.767C446.013 434.943 439.1 441.39 433.39 448.841V448.841C408.795 480.94 364.886 491.077 328.709 473.009V473.009C320.311 468.814 311.271 466.051 301.963 464.832V464.832C261.868 459.581 231.134 426.623 228.693 386.259V386.259C228.126 376.889 226 367.678 222.401 359.008V359.008C206.901 321.659 220.076 278.564 253.812 256.268V256.268C261.644 251.092 268.557 244.645 274.267 237.193V237.193Z" stroke="url(#paint27_linear_1058_81603)"/>
<path d="M281.275 235.196C307.033 204.995 350.596 197.314 385.13 216.884V216.884C393.147 221.427 401.866 224.6 410.927 226.273V226.273C449.961 233.48 478.395 267.366 478.714 307.058V307.058C478.788 316.273 480.399 325.41 483.481 334.095V334.095C496.757 371.502 481.628 413.069 447.413 433.192V433.192C439.47 437.863 432.362 443.827 426.382 450.839V450.839C400.624 481.04 357.061 488.721 322.527 469.151V469.151C314.51 464.608 305.791 461.434 296.729 459.761V459.761C257.695 452.555 229.262 418.669 228.943 378.977V378.977C228.869 369.762 227.257 360.624 224.175 351.94V351.94C210.9 314.532 226.029 272.965 260.244 252.843V252.843C268.187 248.171 275.295 242.207 281.275 235.196V235.196Z" stroke="url(#paint28_linear_1058_81603)"/>
<g clip-path="url(#clip0_1058_81603)">
<path d="M322.739 335.505C321.898 334.563 320.864 334.091 319.632 334.091H294.451C294.227 334.091 294.044 334.022 293.906 333.883C293.766 333.747 293.696 333.593 293.696 333.427V316.803C293.696 316.638 293.766 316.486 293.906 316.347C294.044 316.208 294.227 316.139 294.451 316.139H321.06C327.775 316.139 333.567 318.828 338.436 324.201L344.9 331.93L332.309 346.975L322.739 335.505ZM369.243 324.118C374.111 318.799 379.931 316.139 386.702 316.139H413.228C413.452 316.139 413.619 316.195 413.732 316.304C413.842 316.416 413.899 316.582 413.899 316.803V333.427C413.899 333.593 413.842 333.747 413.732 333.883C413.619 334.022 413.452 334.091 413.228 334.091H388.046C386.815 334.091 385.78 334.563 384.94 335.505L366.389 357.614L385.024 379.889C385.864 380.777 386.869 381.22 388.046 381.22H413.228C413.452 381.22 413.619 381.289 413.732 381.428C413.842 381.567 413.899 381.748 413.899 381.967V398.591C413.899 398.756 413.842 398.911 413.732 399.047C413.619 399.186 413.452 399.255 413.228 399.255H386.702C379.931 399.255 374.139 396.569 369.326 391.193L353.882 372.741L338.436 391.193C333.567 396.569 327.747 399.255 320.977 399.255H294.451C294.227 399.255 294.058 399.186 293.947 399.047C293.834 398.909 293.78 398.73 293.78 398.506V381.882C293.78 381.717 293.834 381.564 293.947 381.426C294.058 381.287 294.227 381.218 294.451 381.218H319.632C320.807 381.218 321.842 380.748 322.739 379.804L340.953 358.028L369.243 324.118Z" fill="url(#paint29_linear_1058_81603)"/>
</g>
<defs>
<linearGradient id="paint0_linear_1058_81603" x1="106.912" y1="360.292" x2="600.749" y2="325.76" gradientUnits="userSpaceOnUse">
<stop stop-color="#ED1EFF"/>
<stop offset="1" stop-color="#00D1FF"/>
</linearGradient>
<linearGradient id="paint1_linear_1058_81603" x1="109.389" y1="347.293" x2="598.271" y2="338.76" gradientUnits="userSpaceOnUse">
<stop stop-color="#ED1EFF"/>
<stop offset="1" stop-color="#00D1FF"/>
</linearGradient>
<linearGradient id="paint2_linear_1058_81603" x1="112.542" y1="334.6" x2="595.118" y2="351.452" gradientUnits="userSpaceOnUse">
<stop stop-color="#ED1EFF"/>
<stop offset="1" stop-color="#00D1FF"/>
</linearGradient>
<linearGradient id="paint3_linear_1058_81603" x1="116.346" y1="322.248" x2="591.315" y2="363.803" gradientUnits="userSpaceOnUse">
<stop stop-color="#ED1EFF"/>
<stop offset="1" stop-color="#00D1FF"/>
</linearGradient>
<linearGradient id="paint4_linear_1058_81603" x1="120.772" y1="310.271" x2="586.888" y2="375.78" gradientUnits="userSpaceOnUse">
<stop stop-color="#ED1EFF"/>
<stop offset="1" stop-color="#00D1FF"/>
</linearGradient>
<linearGradient id="paint5_linear_1058_81603" x1="125.793" y1="298.7" x2="581.867" y2="387.352" gradientUnits="userSpaceOnUse">
<stop stop-color="#ED1EFF"/>
<stop offset="1" stop-color="#00D1FF"/>
</linearGradient>
<linearGradient id="paint6_linear_1058_81603" x1="131.378" y1="287.562" x2="576.281" y2="398.489" gradientUnits="userSpaceOnUse">
<stop stop-color="#ED1EFF"/>
<stop offset="1" stop-color="#00D1FF"/>
</linearGradient>
<linearGradient id="paint7_linear_1058_81603" x1="137.496" y1="276.886" x2="570.164" y2="409.166" gradientUnits="userSpaceOnUse">
<stop stop-color="#ED1EFF"/>
<stop offset="1" stop-color="#00D1FF"/>
</linearGradient>
<linearGradient id="paint8_linear_1058_81603" x1="144.114" y1="266.696" x2="563.546" y2="419.356" gradientUnits="userSpaceOnUse">
<stop stop-color="#ED1EFF"/>
<stop offset="1" stop-color="#00D1FF"/>
</linearGradient>
<linearGradient id="paint9_linear_1058_81603" x1="151.197" y1="257.014" x2="556.462" y2="429.038" gradientUnits="userSpaceOnUse">
<stop stop-color="#ED1EFF"/>
<stop offset="1" stop-color="#00D1FF"/>
</linearGradient>
<linearGradient id="paint10_linear_1058_81603" x1="158.712" y1="247.86" x2="548.948" y2="438.191" gradientUnits="userSpaceOnUse">
<stop stop-color="#ED1EFF"/>
<stop offset="1" stop-color="#00D1FF"/>
</linearGradient>
<linearGradient id="paint11_linear_1058_81603" x1="166.622" y1="239.255" x2="541.038" y2="446.798" gradientUnits="userSpaceOnUse">
<stop stop-color="#ED1EFF"/>
<stop offset="1" stop-color="#00D1FF"/>
</linearGradient>
<linearGradient id="paint12_linear_1058_81603" x1="174.89" y1="231.213" x2="532.77" y2="454.841" gradientUnits="userSpaceOnUse">
<stop stop-color="#ED1EFF"/>
<stop offset="1" stop-color="#00D1FF"/>
</linearGradient>
<linearGradient id="paint13_linear_1058_81603" x1="183.48" y1="223.746" x2="524.179" y2="462.307" gradientUnits="userSpaceOnUse">
<stop stop-color="#ED1EFF"/>
<stop offset="1" stop-color="#00D1FF"/>
</linearGradient>
<linearGradient id="paint14_linear_1058_81603" x1="192.355" y1="216.868" x2="515.306" y2="469.185" gradientUnits="userSpaceOnUse">
<stop stop-color="#ED1EFF"/>
<stop offset="1" stop-color="#00D1FF"/>
</linearGradient>
<linearGradient id="paint15_linear_1058_81603" x1="201.475" y1="210.586" x2="506.184" y2="475.466" gradientUnits="userSpaceOnUse">
<stop stop-color="#ED1EFF"/>
<stop offset="1" stop-color="#00D1FF"/>
</linearGradient>
<linearGradient id="paint16_linear_1058_81603" x1="210.805" y1="204.908" x2="496.855" y2="481.144" gradientUnits="userSpaceOnUse">
<stop stop-color="#ED1EFF"/>
<stop offset="1" stop-color="#00D1FF"/>
</linearGradient>
<linearGradient id="paint17_linear_1058_81603" x1="220.304" y1="199.838" x2="487.355" y2="486.215" gradientUnits="userSpaceOnUse">
<stop stop-color="#ED1EFF"/>
<stop offset="1" stop-color="#00D1FF"/>
</linearGradient>
<linearGradient id="paint18_linear_1058_81603" x1="229.937" y1="195.377" x2="477.721" y2="490.675" gradientUnits="userSpaceOnUse">
<stop stop-color="#ED1EFF"/>
<stop offset="1" stop-color="#00D1FF"/>
</linearGradient>
<linearGradient id="paint19_linear_1058_81603" x1="239.664" y1="191.516" x2="467.991" y2="494.517" gradientUnits="userSpaceOnUse">
<stop stop-color="#ED1EFF"/>
<stop offset="1" stop-color="#00D1FF"/>
</linearGradient>
<linearGradient id="paint20_linear_1058_81603" x1="249.452" y1="188.272" x2="458.205" y2="497.761" gradientUnits="userSpaceOnUse">
<stop stop-color="#ED1EFF"/>
<stop offset="1" stop-color="#00D1FF"/>
</linearGradient>
<linearGradient id="paint21_linear_1058_81603" x1="259.26" y1="185.63" x2="448.395" y2="500.403" gradientUnits="userSpaceOnUse">
<stop stop-color="#ED1EFF"/>
<stop offset="1" stop-color="#00D1FF"/>
</linearGradient>
<linearGradient id="paint22_linear_1058_81603" x1="269.056" y1="183.583" x2="438.6" y2="502.449" gradientUnits="userSpaceOnUse">
<stop stop-color="#ED1EFF"/>
<stop offset="1" stop-color="#00D1FF"/>
</linearGradient>
<linearGradient id="paint23_linear_1058_81603" x1="278.802" y1="182.124" x2="428.854" y2="503.91" gradientUnits="userSpaceOnUse">
<stop stop-color="#ED1EFF"/>
<stop offset="1" stop-color="#00D1FF"/>
</linearGradient>
<linearGradient id="paint24_linear_1058_81603" x1="288.466" y1="181.24" x2="419.191" y2="504.794" gradientUnits="userSpaceOnUse">
<stop stop-color="#ED1EFF"/>
<stop offset="1" stop-color="#00D1FF"/>
</linearGradient>
<linearGradient id="paint25_linear_1058_81603" x1="298.013" y1="180.918" x2="409.644" y2="505.115" gradientUnits="userSpaceOnUse">
<stop stop-color="#ED1EFF"/>
<stop offset="1" stop-color="#00D1FF"/>
</linearGradient>
<linearGradient id="paint26_linear_1058_81603" x1="307.412" y1="181.144" x2="400.244" y2="504.889" gradientUnits="userSpaceOnUse">
<stop stop-color="#ED1EFF"/>
<stop offset="1" stop-color="#00D1FF"/>
</linearGradient>
<linearGradient id="paint27_linear_1058_81603" x1="316.632" y1="181.903" x2="391.025" y2="504.132" gradientUnits="userSpaceOnUse">
<stop stop-color="#ED1EFF"/>
<stop offset="1" stop-color="#00D1FF"/>
</linearGradient>
<linearGradient id="paint28_linear_1058_81603" x1="325.644" y1="183.174" x2="382.013" y2="502.861" gradientUnits="userSpaceOnUse">
<stop stop-color="#ED1EFF"/>
<stop offset="1" stop-color="#00D1FF"/>
</linearGradient>
<linearGradient id="paint29_linear_1058_81603" x1="353.798" y1="316.139" x2="354.047" y2="399.258" gradientUnits="userSpaceOnUse">
<stop stop-color="#00D1FF"/>
<stop offset="1" stop-color="#110A36"/>
</linearGradient>
<clipPath id="clip0_1058_81603">
<rect width="120.203" height="83.1188" fill="white" transform="translate(293.696 316.139)"/>
</clipPath>
</defs>
</svg>
